<svg width="168" height="48" viewBox="0 0 168 48" fill="none" xmlns="http://www.w3.org/2000/svg">
<g clip-path="url(#clip0_23664_3995)">
<path d="M159.422 27.6973V12.6973L154.594 13.178V13.2742C154.69 13.5627 155.656 15.2934 155.656 17.1203V20.678C154.69 19.3319 153.338 18.755 151.89 18.755C149.283 18.755 146.676 20.8703 146.676 25.2934C146.676 29.7165 149.186 31.928 151.89 31.928C153.242 31.928 154.787 31.4473 155.849 29.8127C156.042 30.4857 156.332 31.0627 156.621 31.7357H160.001V31.6396C159.905 31.3511 159.325 29.428 159.422 27.6973ZM155.656 29.1396C154.98 29.7165 154.207 30.005 153.628 30.005C151.504 30.005 150.828 27.6011 150.828 25.1973C150.828 22.6973 151.6 20.7742 153.628 20.7742C154.304 20.7742 155.077 21.1588 155.656 21.6396V29.1396Z" fill="white"/>
<path d="M139.917 21.3507V18.8507H135.572V18.9468C135.572 19.2353 136.152 21.0622 136.152 22.8892V27.6968C136.152 29.4276 135.572 31.3507 135.572 31.6392V31.7353H140.69V31.6392C140.593 31.3507 140.014 29.5238 140.014 27.6968V22.0238C141.752 20.7738 143.49 21.6392 144.745 22.793H144.842L145.421 18.7545C142.621 17.9853 140.787 19.3315 139.917 21.3507Z" fill="white"/>
<path d="M129.393 29.5236C126.786 29.5236 125.627 27.6967 125.338 25.0044H133.642C133.642 21.7351 131.904 18.6582 127.752 18.6582C123.889 18.6582 121.186 21.1582 121.186 25.2928C121.186 29.812 124.469 31.9274 127.752 31.9274C130.842 31.9274 132.773 29.812 133.449 27.9851H133.256C131.807 29.139 130.648 29.5236 129.393 29.5236ZM125.241 24.0428C125.241 22.0236 125.724 19.812 127.655 19.7159C129.393 19.7159 129.876 21.639 129.876 23.6582L125.145 24.4274V24.0428H125.241Z" fill="white"/>
<path d="M118.481 27.7934V23.0819C118.481 20.2934 116.55 18.8511 114.233 18.8511C112.398 18.8511 111.046 19.7165 110.177 21.0627V12.6973L105.639 13.2742V13.3703C105.735 13.6588 106.315 15.3896 106.315 17.2165V27.7934C106.315 29.5242 105.832 31.4473 105.735 31.7357V31.8319H110.853V31.7357C110.853 31.4473 110.274 29.6203 110.274 27.7934V21.8319C110.949 21.4473 111.819 21.1588 112.494 21.1588C113.75 21.1588 114.812 21.8319 114.812 23.6588V27.6973C114.812 29.428 114.329 31.3511 114.233 31.6396V31.7357H119.35V31.6396C119.35 31.3511 118.674 29.428 118.481 27.7934Z" fill="white"/>
<path d="M98.7838 18.7539C97.2388 18.7539 95.887 19.427 95.0179 20.677V18.8501L91.2521 18.9462H90.5762V19.0424C90.5762 19.3308 91.1555 21.1578 91.1555 22.9847V32.7924C91.1555 34.5231 90.5762 36.4462 90.5762 36.7347V36.8308H95.5973V36.7347C95.5973 36.4462 95.0179 34.6193 95.0179 32.7924V30.3885C96.1767 31.6385 97.3354 32.0231 98.4941 32.0231C101.005 32.0231 103.805 29.9078 103.805 25.1962C103.901 20.8693 101.584 18.7539 98.7838 18.7539ZM96.9491 30.1962C96.2732 30.1962 95.6939 30.0039 95.0179 29.6193V21.8308C95.5973 21.3501 96.3698 20.9654 97.0457 20.9654C98.9769 20.9654 99.6528 22.9847 99.6528 25.2924C99.8459 27.7924 98.9769 30.1962 96.9491 30.1962Z" fill="white"/>
<path d="M84.4919 29.5236C81.9813 29.5236 80.7261 27.6967 80.4364 25.0044H88.8371C88.8371 21.7351 87.099 18.6582 82.9469 18.6582C79.0845 18.6582 76.3809 21.1582 76.3809 25.2928C76.3809 29.812 79.6639 31.9274 82.8504 31.9274C85.9403 31.9274 87.8715 29.812 88.5474 27.9851H88.4509C87.099 29.139 85.8437 29.5236 84.4919 29.5236ZM80.4364 24.0428C80.4364 22.0236 80.9192 19.812 82.8504 19.7159C84.5885 19.7159 85.0713 21.639 85.0713 23.6582L80.3398 24.3313V24.0428H80.4364Z" fill="white"/>
<path d="M73.7733 27.7934V23.0819C73.7733 20.2934 71.8421 18.8511 69.6212 18.8511C67.7865 18.8511 66.4347 19.7165 65.5657 21.0627V12.6973L61.0273 13.2742V13.3703C61.1239 13.6588 61.7033 15.3896 61.7033 17.2165V27.7934C61.7033 29.5242 61.2205 31.4473 61.1239 31.7357V31.8319H66.2416V31.7357C66.2416 31.4473 65.6622 29.6203 65.6622 27.7934V21.8319C66.3381 21.4473 67.2072 21.1588 67.8831 21.1588C69.1384 21.1588 70.2005 21.8319 70.2005 23.6588V27.6973C70.2005 29.428 69.7177 31.3511 69.6212 31.6396V31.7357H74.7389V31.6396C74.5458 31.3511 73.8698 29.428 73.7733 27.7934Z" fill="white"/>
<path d="M53.5927 20.582C50.7925 19.332 48.2819 18.5628 48.2819 16.6397C48.2819 15.4859 49.4407 14.2359 51.1787 14.2359C53.6893 14.2359 56.1999 16.9282 58.0345 18.659H58.1311V14.5243C56.5861 13.8513 54.1721 13.082 51.8547 13.082C47.4129 13.082 44.9023 15.7743 44.9023 18.659C44.9023 21.4474 47.3163 23.082 50.5028 24.2359C53.3031 25.1974 55.4274 26.2551 55.4274 28.3705C55.4274 30.1974 53.979 30.9666 52.434 30.9666C49.8269 30.9666 47.2198 28.1782 45.2886 26.2551H45.0955V30.4859C47.606 31.4474 50.1166 32.1205 51.8547 32.0243C55.5239 32.0243 58.9036 30.1974 58.9036 26.4474C58.807 24.4282 57.8414 22.2166 53.5927 20.582Z" fill="white"/>
<path d="M20.9559 16.755L12.0724 11.3703L11.9758 9.35111L14.4864 8.29342L12.8448 5.31265C14.8726 3.9665 15.6451 2.62034 15.6451 2.62034H11.493L9.94804 0.697266L6.95468 0.793419L5.40972 5.2165L2.03012 8.00496C2.03012 8.00496 3.47852 8.29342 5.31316 8.19727V11.755C5.31316 11.755 -0.963244 15.0242 0.195477 30.7934L1.45076 49.1588L8.78932 50.6973L6.47188 47.1396L9.75492 32.8127L12.6517 46.0819L19.0247 47.8126L16.8038 43.3896L15.3554 28.1973V27.5242L14.8726 20.9857L20.5696 22.3319L29.0669 20.6011L29.3566 18.1011L20.9559 16.755Z" fill="white"/>
<path d="M29.5496 4.63867L24.7216 6.17713L24.625 13.9656L28.0046 15.0233L28.6805 8.77329L31.2876 6.6579L29.5496 4.63867Z" fill="white"/>
<path d="M24.7207 24.6391L24.8173 43.8699L27.6175 43.966V24.543L24.7207 24.6391Z" fill="white"/>
</g>
<defs>
<clipPath id="clip0_23664_3995">
<rect width="168" height="47" fill="white" transform="translate(0.00195312 0.697266)"/>
</clipPath>
</defs>
</svg>
