<svg width="160" height="50" viewBox="0 0 160 50" fill="none" xmlns="http://www.w3.org/2000/svg">
<g clip-path="url(#clip0_23590_5803)">
<path d="M159.42 21.1543V6.1543L154.592 6.63507V6.73122C154.688 7.01968 155.654 8.75045 155.654 10.5774V14.1351C154.688 12.7889 153.336 12.212 151.888 12.212C149.281 12.212 146.674 14.3274 146.674 18.7505C146.674 23.1735 149.184 25.3851 151.888 25.3851C153.24 25.3851 154.785 24.9043 155.847 23.2697C156.04 23.9428 156.33 24.5197 156.62 25.1928H159.999V25.0966C159.903 24.8081 159.323 22.8851 159.42 21.1543ZM155.654 22.5966C154.978 23.1735 154.206 23.462 153.626 23.462C151.502 23.462 150.826 21.0581 150.826 18.6543C150.826 16.1543 151.598 14.2312 153.626 14.2312C154.302 14.2312 155.075 14.6158 155.654 15.0966V22.5966Z" fill="white"/>
<path d="M139.916 14.8077V12.3077H135.57V12.4039C135.57 12.6923 136.15 14.5193 136.15 16.3462V21.1539C136.15 22.8846 135.57 24.8077 135.57 25.0962V25.1923H140.688V25.0962C140.591 24.8077 140.012 22.9808 140.012 21.1539V15.4808C141.75 14.2308 143.488 15.0962 144.744 16.25H144.84L145.419 12.2116C142.619 11.4423 140.785 12.7885 139.916 14.8077Z" fill="white"/>
<path d="M129.391 22.9806C126.784 22.9806 125.625 21.1537 125.336 18.4614H133.64C133.64 15.1922 131.902 12.1152 127.75 12.1152C123.887 12.1152 121.184 14.6152 121.184 18.7498C121.184 23.2691 124.467 25.3845 127.75 25.3845C130.84 25.3845 132.771 23.2691 133.447 21.4422H133.254C131.805 22.596 130.646 22.9806 129.391 22.9806ZM125.239 17.4998C125.239 15.4806 125.722 13.2691 127.653 13.1729C129.391 13.1729 129.874 15.096 129.874 17.1152L125.143 17.8845V17.4998H125.239Z" fill="white"/>
<path d="M118.479 21.2505V16.5389C118.479 13.7505 116.548 12.3081 114.231 12.3081C112.396 12.3081 111.044 13.1735 110.175 14.5197V6.1543L105.637 6.73122V6.82737C105.733 7.11584 106.313 8.8466 106.313 10.6735V21.2505C106.313 22.9812 105.83 24.9043 105.733 25.1928V25.2889H110.851V25.1928C110.851 24.9043 110.272 23.0774 110.272 21.2505V15.2889C110.948 14.9043 111.817 14.6158 112.492 14.6158C113.748 14.6158 114.81 15.2889 114.81 17.1158V21.1543C114.81 22.8851 114.327 24.8081 114.231 25.0966V25.1928H119.348V25.0966C119.348 24.8081 118.672 22.8851 118.479 21.2505Z" fill="white"/>
<path d="M98.7818 12.2109C97.2369 12.2109 95.885 12.884 95.016 14.134V12.3071L91.2501 12.4032H90.5742V12.4994C90.5742 12.7879 91.1536 14.6148 91.1536 16.4417V26.2494C91.1536 27.9802 90.5742 29.9032 90.5742 30.1917V30.2879H95.5953V30.1917C95.5953 29.9032 95.016 28.0763 95.016 26.2494V23.8456C96.1747 25.0956 97.3334 25.4802 98.4921 25.4802C101.003 25.4802 103.803 23.3648 103.803 18.6532C103.9 14.3263 101.582 12.2109 98.7818 12.2109ZM96.9472 23.6532C96.2713 23.6532 95.6919 23.4609 95.016 23.0763V15.2879C95.5953 14.8071 96.3678 14.4225 97.0437 14.4225C98.9749 14.4225 99.6509 16.4417 99.6509 18.7494C99.844 21.2494 98.9749 23.6532 96.9472 23.6532Z" fill="white"/>
<path d="M84.49 22.9806C81.9794 22.9806 80.7241 21.1537 80.4344 18.4614H88.8352C88.8352 15.1922 87.0971 12.1152 82.945 12.1152C79.0826 12.1152 76.3789 14.6152 76.3789 18.7498C76.3789 23.2691 79.662 25.3845 82.8484 25.3845C85.9384 25.3845 87.8696 23.2691 88.5455 21.4422H88.4489C87.0971 22.596 85.8418 22.9806 84.49 22.9806ZM80.4344 17.4998C80.4344 15.4806 80.9172 13.2691 82.8484 13.1729C84.5865 13.1729 85.0693 15.096 85.0693 17.1152L80.3379 17.7883V17.4998H80.4344Z" fill="white"/>
<path d="M73.7713 21.2505V16.5389C73.7713 13.7505 71.8401 12.3081 69.6192 12.3081C67.7846 12.3081 66.4328 13.1735 65.5637 14.5197V6.1543L61.0254 6.73122V6.82737C61.122 7.11584 61.7013 8.8466 61.7013 10.6735V21.2505C61.7013 22.9812 61.2185 24.9043 61.1219 25.1928V25.2889H66.2396V25.1928C66.2396 24.9043 65.6603 23.0774 65.6603 21.2505V15.2889C66.3362 14.9043 67.2052 14.6158 67.8812 14.6158C69.1364 14.6158 70.1986 15.2889 70.1986 17.1158V21.1543C70.1986 22.8851 69.7158 24.8081 69.6192 25.0966V25.1928H74.7369V25.0966C74.5438 24.8081 73.8679 22.8851 73.7713 21.2505Z" fill="white"/>
<path d="M53.5908 14.0391C50.7906 12.7891 48.28 12.0198 48.28 10.0968C48.28 8.94291 49.4387 7.69291 51.1768 7.69291C53.6874 7.69291 56.1979 10.3852 58.0326 12.116H58.1291V7.98137C56.5842 7.30829 54.1702 6.53906 51.8527 6.53906C47.411 6.53906 44.9004 9.23137 44.9004 12.116C44.9004 14.9044 47.3144 16.5391 50.5009 17.6929C53.3011 18.6544 55.4254 19.7121 55.4254 21.8275C55.4254 23.6544 53.977 24.4237 52.4321 24.4237C49.825 24.4237 47.2178 21.6352 45.2866 19.7121H45.0935V23.9429C47.6041 24.9044 50.1146 25.5775 51.8527 25.4814C55.522 25.4814 58.9016 23.6544 58.9016 19.9044C58.805 17.8852 57.8394 15.6737 53.5908 14.0391Z" fill="white"/>
<path d="M20.9539 16.0577L12.0704 10.6731L11.9739 8.65385L14.4844 7.59615L12.8429 4.61538C14.8707 3.26923 15.6431 1.92308 15.6431 1.92308H11.491L9.94609 0L6.95273 0.0961538L5.40777 4.51923L2.02816 7.30769C2.02816 7.30769 3.47657 7.59615 5.31121 7.5V11.0577C5.31121 11.0577 -0.965197 14.3269 0.193524 30.0962L1.4488 48.4615L8.78737 50L6.46993 46.4423L9.75297 32.1154L12.6498 45.3846L19.0227 47.1154L16.8019 42.6923L15.3535 27.5V26.8269L14.8707 20.2885L20.5677 21.6346L29.065 19.9038L29.3547 17.4038L20.9539 16.0577Z" fill="white"/>
<path d="M29.5476 3.94141L24.7196 5.47987L24.623 13.2683L28.0026 14.326L28.6786 8.07602L31.2857 5.96064L29.5476 3.94141Z" fill="white"/>
<path d="M24.7188 23.9419L24.8153 43.1726L27.6156 43.2688V23.8457L24.7188 23.9419Z" fill="white"/>
<path d="M44.9971 42.3086V34.8086H49.5354L49.4388 35.8663H46.3489V37.7894H49.3423V38.8471H46.3489V41.1547H49.5354V42.3086H44.9971Z" fill="#C5D3E4"/>
<path d="M50.501 42.3078L52.5287 39.4232L50.5975 36.6348H52.1425L53.3978 38.5578L54.6531 36.6348H56.198L54.2668 39.4232L56.2946 42.3078H54.7496L53.3978 40.2886L52.0459 42.3078H50.501Z" fill="#C5D3E4"/>
<path d="M57.1636 44.6164V36.6357H58.3223L58.4189 37.4049C58.612 37.1164 58.8051 36.9241 59.1913 36.7318C59.481 36.5395 59.8673 36.4434 60.2535 36.4434C60.7363 36.4434 61.1225 36.5395 61.5088 36.828C61.895 37.1164 62.0881 37.4049 62.2813 37.8857C62.4744 38.3664 62.5709 38.8472 62.5709 39.4241C62.5709 40.2895 62.3778 40.9626 61.895 41.5395C61.5088 42.1164 60.9294 42.4049 60.1569 42.4049C59.7707 42.4049 59.481 42.3087 59.1913 42.2126C58.9017 42.1164 58.612 41.9241 58.4189 41.6357C58.4189 42.1164 58.4189 42.4049 58.4189 42.5011V44.6164H57.1636ZM59.8673 41.3472C60.2535 41.3472 60.5432 41.1549 60.8329 40.8664C61.026 40.578 61.2191 40.0972 61.2191 39.4241C61.2191 38.7511 61.1225 38.2703 60.8329 37.9818C60.6397 37.6934 60.2535 37.5011 59.8673 37.5011C58.9982 37.5011 58.5154 38.078 58.5154 39.328C58.5154 40.0011 58.612 40.578 58.9017 40.8664C58.9982 41.251 59.3845 41.3472 59.8673 41.3472Z" fill="#C5D3E4"/>
<path d="M65.6607 42.4041C65.2745 42.4041 64.9848 42.4041 64.6951 42.308C64.4054 42.2118 64.2123 42.1157 64.1157 41.8272C63.9226 41.6349 63.8261 41.3465 63.8261 41.1541C63.7295 40.8657 63.7295 40.5772 63.7295 40.0965V34.6157L65.0813 34.5195V40.0965C65.0813 40.5772 65.1779 40.9618 65.2745 41.1541C65.371 41.3465 65.6607 41.4426 65.9504 41.4426C66.1435 41.4426 66.3366 41.4426 66.6263 41.3465V42.308C66.6263 42.308 66.6263 42.308 66.5297 42.308C66.4332 42.308 66.3366 42.308 66.3366 42.308C66.2401 42.308 66.1435 42.308 66.0469 42.308C65.8538 42.4041 65.7573 42.4041 65.6607 42.4041Z" fill="#C5D3E4"/>
<path d="M69.8132 42.404C68.9441 42.404 68.2682 42.1155 67.882 41.6348C67.3992 41.0578 67.2061 40.3848 67.2061 39.5194C67.2061 38.654 67.3992 37.8848 67.882 37.404C68.3648 36.9232 69.0407 36.6348 69.9097 36.6348C70.7788 36.6348 71.4547 36.9232 71.9375 37.404C72.4203 37.9809 72.6134 38.654 72.6134 39.5194C72.6134 40.3848 72.3237 41.154 71.8409 41.6348C71.3581 42.1155 70.6822 42.404 69.8132 42.404ZM69.8132 41.4425C70.296 41.4425 70.5857 41.2502 70.8753 40.9617C71.0685 40.6732 71.2616 40.1925 71.2616 39.5194C71.2616 38.9425 71.165 38.4617 70.8753 38.0771C70.6822 37.7886 70.296 37.5963 69.8132 37.5963C69.3304 37.5963 69.0407 37.7886 68.751 38.0771C68.5579 38.3655 68.3648 38.8463 68.3648 39.5194C68.3648 40.0963 68.4613 40.5771 68.751 40.9617C69.0407 41.2502 69.3304 41.4425 69.8132 41.4425Z" fill="#C5D3E4"/>
<path d="M73.6753 42.3078V36.6348H74.834L75.0271 37.5002C75.4134 36.9232 75.8962 36.6348 76.6687 36.6348C76.8618 36.6348 76.9583 36.6348 77.0549 36.6348V37.7886C76.9583 37.7886 76.7652 37.7886 76.6687 37.7886C76.1859 37.7886 75.7996 37.8848 75.5099 38.1732C75.2202 38.4617 75.1237 38.8463 75.1237 39.2309V42.3078H73.6753Z" fill="#C5D3E4"/>
<path d="M80.4344 42.404C79.5654 42.404 78.7929 42.1155 78.3101 41.6348C77.8273 41.154 77.5376 40.3848 77.5376 39.5194C77.5376 38.654 77.7307 37.8848 78.2135 37.404C78.6963 36.8271 79.3722 36.6348 80.1447 36.6348C80.9172 36.6348 81.4966 36.9232 81.9794 37.404C82.3656 37.8848 82.6553 38.5578 82.6553 39.3271C82.6553 39.4232 82.6553 39.5194 82.6553 39.6155C82.6553 39.7117 82.6553 39.8078 82.6553 39.904H78.8894C78.8894 40.3848 79.0826 40.8655 79.2757 41.154C79.4688 41.4425 79.9516 41.5386 80.4344 41.5386C81.0138 41.5386 81.6897 41.3463 82.1725 41.0578L82.3656 42.0194C81.8828 42.2117 81.2069 42.404 80.4344 42.404ZM78.986 38.9425H81.4966C81.4966 38.4617 81.4 38.1732 81.2069 37.8848C81.0138 37.5963 80.7241 37.5002 80.3378 37.5002C79.9516 37.5002 79.6619 37.5963 79.4688 37.8848C79.1791 38.0771 78.986 38.4617 78.986 38.9425Z" fill="#C5D3E4"/>
<path d="M83.5244 43.7505C83.7175 42.7889 83.9107 41.9235 84.0072 41.1543H85.2625V41.4428C85.0694 42.212 84.7797 42.9812 84.49 43.8466H83.5244V43.7505Z" fill="#C5D3E4"/>
<path d="M91.4423 42.4041C90.6698 42.4041 90.0905 42.1157 89.7042 41.6349C89.318 41.058 89.0283 40.3849 89.0283 39.5195C89.0283 38.6541 89.2214 37.9811 89.7042 37.4041C90.0905 36.8272 90.6698 36.6349 91.4423 36.6349C92.2148 36.6349 92.7942 36.9234 93.1804 37.5003C93.1804 37.2118 93.0838 36.8272 93.0838 36.5388V34.6157L94.4357 34.5195V42.308H93.277L93.0838 41.5388C92.9873 41.6349 92.9873 41.7311 92.8907 41.7311C92.7942 41.8272 92.7942 41.8272 92.6976 41.9234C92.601 42.0195 92.5045 42.1157 92.4079 42.1157C92.3114 42.1157 92.1182 42.2118 92.0217 42.2118C91.8286 42.4041 91.6354 42.4041 91.4423 42.4041ZM91.732 41.4426C92.601 41.4426 93.0838 40.8657 93.0838 39.6157C93.0838 38.9426 92.9873 38.4618 92.6976 38.0772C92.5045 37.7888 92.1182 37.5965 91.6354 37.5965C91.2492 37.5965 90.863 37.7888 90.6698 38.0772C90.3802 38.3657 90.2836 38.8465 90.2836 39.5195C90.2836 40.1926 90.3802 40.5772 90.6698 40.9618C91.0561 41.2503 91.3458 41.4426 91.732 41.4426Z" fill="#C5D3E4"/>
<path d="M95.8843 35.8648V34.7109H97.2361V35.8648H95.8843ZM95.8843 42.3071V36.634H97.2361V42.3071H95.8843Z" fill="#C5D3E4"/>
<path d="M100.519 42.404C99.6499 42.404 98.974 42.3078 98.4912 42.0194L98.5878 40.9617C98.7809 41.0578 99.0706 41.154 99.4568 41.2502C99.8431 41.3463 100.133 41.4425 100.422 41.4425C100.712 41.4425 100.905 41.3463 101.098 41.2502C101.291 41.154 101.388 40.9617 101.388 40.7694C101.388 40.5771 101.291 40.3848 101.195 40.2886C101.002 40.1925 100.712 40.0002 100.326 39.904C100.133 39.8078 100.036 39.8078 100.036 39.8078C99.5534 39.6155 99.1671 39.4232 98.8775 39.1348C98.6843 38.8463 98.4912 38.5578 98.4912 38.1732C98.4912 37.6925 98.6843 37.3078 99.0706 37.0194C99.4568 36.7309 99.9396 36.6348 100.616 36.6348C101.291 36.6348 101.967 36.7309 102.547 37.0194L102.257 37.9809C101.678 37.6925 101.195 37.5963 100.712 37.5963C100.422 37.5963 100.229 37.5963 100.036 37.6925C99.8431 37.7886 99.8431 37.8848 99.8431 38.0771C99.8431 38.2694 99.9396 38.3655 100.036 38.4617C100.229 38.5578 100.519 38.654 100.905 38.8463H101.002C101.098 38.8463 101.098 38.9425 101.195 38.9425C101.678 39.1348 102.064 39.3271 102.354 39.6155C102.643 39.904 102.74 40.1925 102.74 40.6732C102.74 41.2502 102.547 41.6348 102.16 42.0194C101.774 42.2117 101.195 42.404 100.519 42.404Z" fill="#C5D3E4"/>
<path d="M106.313 42.4044C105.444 42.4044 104.768 42.116 104.285 41.6352C103.802 41.1544 103.609 40.3852 103.609 39.4237C103.609 38.4621 103.899 37.7891 104.381 37.3083C104.864 36.8275 105.54 36.5391 106.409 36.5391C107.085 36.5391 107.664 36.6352 108.051 36.9237L107.761 37.8852C107.278 37.5968 106.892 37.5006 106.506 37.5006C106.023 37.5006 105.733 37.6929 105.444 37.9814C105.154 38.2698 105.057 38.7506 105.057 39.4237C105.057 40.0968 105.154 40.5775 105.444 40.866C105.733 41.1544 106.023 41.3468 106.506 41.3468C106.988 41.3468 107.471 41.1544 107.954 40.866L108.051 41.9237C107.858 42.116 107.568 42.2121 107.278 42.3083C106.988 42.4044 106.699 42.4044 106.313 42.4044Z" fill="#C5D3E4"/>
<path d="M111.43 42.404C110.561 42.404 109.885 42.1155 109.499 41.6348C109.016 41.0578 108.823 40.3848 108.823 39.5194C108.823 38.654 109.016 37.8848 109.499 37.404C109.982 36.9232 110.658 36.6348 111.527 36.6348C112.396 36.6348 113.072 36.9232 113.555 37.404C114.037 37.9809 114.231 38.654 114.231 39.5194C114.231 40.3848 113.941 41.154 113.458 41.6348C112.975 42.1155 112.299 42.404 111.43 42.404ZM111.43 41.4425C111.913 41.4425 112.203 41.2502 112.493 40.9617C112.686 40.6732 112.879 40.1925 112.879 39.5194C112.879 38.9425 112.782 38.4617 112.493 38.0771C112.299 37.7886 111.913 37.5963 111.43 37.5963C110.948 37.5963 110.658 37.7886 110.368 38.0771C110.175 38.3655 109.982 38.8463 109.982 39.5194C109.982 40.0963 110.079 40.5771 110.368 40.9617C110.658 41.2502 110.948 41.4425 111.43 41.4425Z" fill="#C5D3E4"/>
<path d="M116.741 42.3078L114.521 36.6348H115.969C116.065 36.8271 116.162 37.3078 116.452 38.0771C116.741 38.8463 116.935 39.4232 117.031 39.7117C117.224 40.2886 117.321 40.6732 117.417 40.9617C117.417 40.9617 117.417 40.8655 117.514 40.6732C117.61 40.4809 117.61 40.2886 117.707 40.0963C117.804 39.904 117.804 39.8078 117.804 39.7117C117.804 39.7117 117.997 39.2309 118.286 38.2694C118.576 37.3078 118.769 36.8271 118.866 36.6348H120.314L118.19 42.3078H116.741Z" fill="#C5D3E4"/>
<path d="M123.5 42.404C122.631 42.404 121.859 42.1155 121.376 41.6348C120.893 41.154 120.604 40.3848 120.604 39.5194C120.604 38.654 120.797 37.8848 121.279 37.404C121.762 36.8271 122.438 36.6348 123.211 36.6348C123.983 36.6348 124.562 36.9232 125.045 37.404C125.432 37.8848 125.721 38.5578 125.721 39.3271C125.721 39.4232 125.721 39.5194 125.721 39.6155C125.721 39.7117 125.721 39.8078 125.721 39.904H121.955C121.955 40.3848 122.148 40.8655 122.342 41.154C122.535 41.4425 123.018 41.5386 123.5 41.5386C124.08 41.5386 124.756 41.3463 125.238 41.0578L125.432 42.0194C124.949 42.2117 124.273 42.404 123.5 42.404ZM122.052 38.9425H124.562C124.562 38.4617 124.466 38.1732 124.273 37.8848C124.08 37.5963 123.79 37.5002 123.404 37.5002C123.018 37.5002 122.728 37.5963 122.535 37.8848C122.245 38.0771 122.052 38.4617 122.052 38.9425Z" fill="#C5D3E4"/>
<path d="M126.977 42.3078V36.6348H128.135L128.328 37.5002C128.715 36.9232 129.197 36.6348 129.97 36.6348C130.163 36.6348 130.26 36.6348 130.356 36.6348V37.7886C130.26 37.7886 130.066 37.7886 129.97 37.7886C129.487 37.7886 129.101 37.8848 128.811 38.1732C128.522 38.4617 128.425 38.8463 128.425 39.2309V42.3078H126.977Z" fill="#C5D3E4"/>
<path d="M130.163 43.7505C130.356 42.7889 130.549 41.9235 130.646 41.1543H131.901V41.4428C131.708 42.212 131.418 42.9812 131.129 43.8466H130.163V43.7505Z" fill="#C5D3E4"/>
<path d="M135.957 42.3078V36.6348H137.115L137.308 37.5002C137.695 36.9232 138.177 36.6348 138.95 36.6348C139.143 36.6348 139.24 36.6348 139.336 36.6348V37.7886C139.24 37.7886 139.046 37.7886 138.95 37.7886C138.467 37.7886 138.081 37.8848 137.791 38.1732C137.501 38.4617 137.405 38.8463 137.405 39.2309V42.3078H135.957Z" fill="#C5D3E4"/>
<path d="M142.716 42.404C141.847 42.404 141.074 42.1155 140.591 41.6348C140.109 41.154 139.819 40.3848 139.819 39.5194C139.819 38.654 140.012 37.8848 140.495 37.404C140.978 36.8271 141.653 36.6348 142.426 36.6348C143.198 36.6348 143.778 36.9232 144.261 37.404C144.647 37.8848 144.937 38.5578 144.937 39.3271C144.937 39.4232 144.937 39.5194 144.937 39.6155C144.937 39.7117 144.937 39.8078 144.937 39.904H141.171C141.171 40.3848 141.364 40.8655 141.557 41.154C141.75 41.4425 142.233 41.5386 142.716 41.5386C143.295 41.5386 143.971 41.3463 144.454 41.0578L144.647 42.0194C144.164 42.2117 143.488 42.404 142.716 42.404ZM141.267 38.9425H143.778C143.778 38.4617 143.681 38.1732 143.488 37.8848C143.295 37.5963 143.005 37.5002 142.619 37.5002C142.233 37.5002 141.943 37.5963 141.75 37.8848C141.364 38.0771 141.267 38.4617 141.267 38.9425Z" fill="#C5D3E4"/>
<path d="M147.544 42.4044C147.061 42.4044 146.578 42.2121 146.288 41.9237C145.999 41.6352 145.806 41.2506 145.806 40.6737C145.806 40.0968 145.999 39.616 146.385 39.3275C146.771 39.0391 147.351 38.8468 148.123 38.7506C148.22 38.7506 148.316 38.7506 148.509 38.7506C148.606 38.7506 148.799 38.7506 148.896 38.7506C149.089 38.7506 149.185 38.7506 149.282 38.7506V38.4621C149.282 38.0775 149.185 37.8852 149.089 37.6929C148.896 37.5006 148.702 37.5006 148.413 37.5006C147.93 37.5006 147.351 37.5968 146.675 37.8852C146.675 37.8852 146.578 37.6929 146.482 37.4044C146.385 37.116 146.288 36.9237 146.288 36.9237C146.964 36.6352 147.64 36.5391 148.413 36.5391C149.185 36.5391 149.765 36.7314 150.054 37.0198C150.441 37.3083 150.537 37.8852 150.537 38.6544V42.3083H149.572C149.572 42.3083 149.572 42.2121 149.475 41.9237C149.378 41.7314 149.378 41.6352 149.378 41.5391C149.089 41.8275 148.799 42.0198 148.509 42.116C148.22 42.3083 147.93 42.4044 147.544 42.4044ZM147.93 41.4429C148.22 41.4429 148.509 41.3468 148.702 41.2506C148.896 41.0583 149.089 40.9621 149.185 40.6737V39.616C149.185 39.616 149.089 39.616 148.896 39.616C148.702 39.616 148.606 39.616 148.606 39.616C148.027 39.616 147.64 39.8083 147.447 39.9044C147.158 40.0968 147.061 40.2891 147.061 40.6737C147.061 40.866 147.158 41.0583 147.254 41.2506C147.447 41.4429 147.64 41.4429 147.93 41.4429Z" fill="#C5D3E4"/>
<path d="M154.11 42.4041C153.337 42.4041 152.758 42.1157 152.372 41.6349C151.985 41.058 151.696 40.3849 151.696 39.5195C151.696 38.6541 151.889 37.9811 152.372 37.4041C152.758 36.8272 153.337 36.6349 154.11 36.6349C154.882 36.6349 155.462 36.9234 155.848 37.5003C155.848 37.2118 155.751 36.8272 155.751 36.5388V34.6157L157.103 34.5195V42.308H155.944L155.751 41.5388C155.655 41.6349 155.655 41.7311 155.558 41.7311C155.462 41.8272 155.462 41.8272 155.365 41.9234C155.269 42.0195 155.172 42.1157 155.075 42.1157C154.979 42.2118 154.786 42.2118 154.689 42.2118C154.496 42.4041 154.303 42.4041 154.11 42.4041ZM154.399 41.4426C155.269 41.4426 155.751 40.8657 155.751 39.6157C155.751 38.9426 155.655 38.4618 155.365 38.0772C155.172 37.7888 154.786 37.5965 154.303 37.5965C153.917 37.5965 153.53 37.7888 153.337 38.0772C153.048 38.3657 152.951 38.8465 152.951 39.5195C152.951 40.1926 153.048 40.5772 153.337 40.9618C153.724 41.2503 154.013 41.4426 154.399 41.4426Z" fill="#C5D3E4"/>
<path d="M159.228 42.4037C159.034 42.4037 158.841 42.3075 158.648 42.2114C158.455 42.0191 158.455 41.8268 158.455 41.6345C158.455 41.4422 158.552 41.2499 158.648 41.0575C158.841 40.8652 159.034 40.8652 159.228 40.8652C159.421 40.8652 159.614 40.9614 159.807 41.0575C160 41.2499 160 41.4422 160 41.6345C160 41.8268 159.903 42.0191 159.807 42.2114C159.614 42.3075 159.421 42.4037 159.228 42.4037Z" fill="#C5D3E4"/>
</g>
<defs>
<clipPath id="clip0_23590_5803">
<rect width="160" height="50" fill="white"/>
</clipPath>
</defs>
</svg>
